{
    "accessors" : [
        {
            "bufferView" : 0, 
            "componentType" : 5123, 
            "count" : 1824, 
            "max" : [
                737
            ], 
            "min" : [
                0
            ], 
            "type" : "SCALAR"
        }, 
        {
            "bufferView" : 1, 
            "componentType" : 5126, 
            "count" : 738, 
            "max" : [
                0.8660253882408142, 
                1.0, 
                0.5000000596046448
            ], 
            "min" : [
                -0.866025447845459, 
                -1.0, 
                -1.0
            ], 
            "type" : "VEC3"
        }, 
        {
            "bufferView" : 2, 
            "componentType" : 5126, 
            "count" : 738, 
            "max" : [
                0.8660255074501038, 
                0.9999999403953552, 
                1.0
            ], 
            "min" : [
                -0.8660255074501038, 
                -0.9999999403953552, 
                -0.5000000596046448
            ], 
            "type" : "VEC3"
        }, 
        {
            "bufferView" : 3, 
            "componentType" : 5126, 
            "count" : 738, 
            "max" : [
                0.0, 
                1.0
            ], 
            "min" : [
                0.0, 
                1.0
            ], 
            "type" : "VEC2"
        }
    ], 
    "asset" : {
        "generator" : "Khronos Blender glTF 2.0 exporter", 
        "version" : "2.0"
    }, 
    "bufferViews" : [
        {
            "buffer" : 0, 
            "byteLength" : 3648, 
            "byteOffset" : 0, 
            "target" : 34963
        }, 
        {
            "buffer" : 0, 
            "byteLength" : 8856, 
            "byteOffset" : 3648, 
            "target" : 34962
        }, 
        {
            "buffer" : 0, 
            "byteLength" : 8856, 
            "byteOffset" : 12504, 
            "target" : 34962
        }, 
        {
            "buffer" : 0, 
            "byteLength" : 5904, 
            "byteOffset" : 21360, 
            "target" : 34962
        }
    ], 
    "buffers" : [
        {
            "byteLength" : 27264, 
            "uri" : "ribbon.bin"
        }
    ], 
    "meshes" : [
        {
            "name" : "Cylinder", 
            "primitives" : [
                {
                    "attributes" : {
                        "NORMAL" : 2, 
                        "POSITION" : 1, 
                        "TEXCOORD_0" : 3
                    }, 
                    "indices" : 0
                }
            ]
        }
    ], 
    "nodes" : [
        {
            "mesh" : 0, 
            "name" : "Cylinder"
        }
    ], 
    "scene" : 0, 
    "scenes" : [
        {
            "name" : "Scene", 
            "nodes" : [
                0
            ]
        }
    ]
}
