{
    "accessors" : [
        {
            "bufferView" : 0, 
            "componentType" : 5123, 
            "count" : 4788, 
            "max" : [
                2078
            ], 
            "min" : [
                0
            ], 
            "type" : "SCALAR"
        }, 
        {
            "bufferView" : 1, 
            "componentType" : 5126, 
            "count" : 2079, 
            "max" : [
                1.0, 
                0.5, 
                1.0
            ], 
            "min" : [
                -1.0, 
                -0.5, 
                -1.0
            ], 
            "type" : "VEC3"
        }, 
        {
            "bufferView" : 2, 
            "componentType" : 5126, 
            "count" : 2079, 
            "max" : [
                0.9238796234130859, 
                1.0, 
                0.9238796234130859
            ], 
            "min" : [
                -0.9238796234130859, 
                -1.0, 
                -0.9238795638084412
            ], 
            "type" : "VEC3"
        }, 
        {
            "bufferView" : 3, 
            "componentType" : 5126, 
            "count" : 2079, 
            "max" : [
                1.0, 
                1.0000001788139343
            ], 
            "min" : [
                0.0, 
                -2.384185791015625e-07
            ], 
            "type" : "VEC2"
        }
    ], 
    "asset" : {
        "generator" : "Khronos Blender glTF 2.0 exporter", 
        "version" : "2.0"
    }, 
    "bufferViews" : [
        {
            "buffer" : 0, 
            "byteLength" : 9576, 
            "byteOffset" : 0, 
            "target" : 34963
        }, 
        {
            "buffer" : 0, 
            "byteLength" : 24948, 
            "byteOffset" : 9576, 
            "target" : 34962
        }, 
        {
            "buffer" : 0, 
            "byteLength" : 24948, 
            "byteOffset" : 34524, 
            "target" : 34962
        }, 
        {
            "buffer" : 0, 
            "byteLength" : 16632, 
            "byteOffset" : 59472, 
            "target" : 34962
        }
    ], 
    "buffers" : [
        {
            "byteLength" : 76104, 
            "uri" : "ribbon.bin"
        }
    ], 
    "meshes" : [
        {
            "name" : "Cylinder", 
            "primitives" : [
                {
                    "attributes" : {
                        "NORMAL" : 2, 
                        "POSITION" : 1, 
                        "TEXCOORD_0" : 3
                    }, 
                    "indices" : 0
                }
            ]
        }
    ], 
    "nodes" : [
        {
            "mesh" : 0, 
            "name" : "Cylinder"
        }
    ], 
    "scene" : 0, 
    "scenes" : [
        {
            "name" : "Scene", 
            "nodes" : [
                0
            ]
        }
    ]
}
